<?xml version="1.0" encoding="utf-8"?>
<!-- Generator: Adobe Illustrator 23.0.0, SVG Export Plug-In . SVG Version: 6.00 Build 0)  -->
<svg version="1.1" id="首页_x2014__x2014_未选中_1_"
	 xmlns="http://www.w3.org/2000/svg" xmlns:xlink="http://www.w3.org/1999/xlink" x="0px" y="0px" viewBox="0 0 600 600"
	 style="enable-background:new 0 0 600 600;" xml:space="preserve">
<style type="text/css">
	.st0{fill:#C9C9C9;}
</style>
<g id="圆角矩形_2_拷贝">
	<g>
		<path class="st0" d="M299.4,101.9c17.6,10.4,52.6,34.4,94.9,69.8c24.3,20.4,45.7,40.2,61.9,57.2c18,18.9,24.6,29.3,26.8,33.3
			v238.6c0,0.4-0.3,0.8-0.7,0.8H116.7c-0.4,0-0.7-0.3-0.7-0.8V262.3c2.2-4,8.9-14.4,26.8-33.3c16.2-17.1,37.6-36.9,61.9-57.2
			C246.9,136.3,281.8,112.3,299.4,101.9 M299.4,50C271.9,50,68,208.4,68,257.2v243.7c0,26.9,21.8,48.8,48.7,48.8h365.6
			c26.9,0,48.7-21.8,48.7-48.8V257.2C531.1,208.4,326.9,50,299.4,50L299.4,50z"/>
	</g>
</g>
<g id="圆角矩形_3">
	<g>
		<path class="st0" d="M347.1,390.5c1.1,0,2,0.9,2,2v109.2h-99V390.5H347.1 M347.1,342.5h-145v207.2h195V392.5
			C397.1,364.9,374.7,342.5,347.1,342.5L347.1,342.5z"/>
	</g>
</g>
</svg>
