<?xml version="1.0" encoding="utf-8"?>
<!-- Generator: Adobe Illustrator 23.0.0, SVG Export Plug-In . SVG Version: 6.00 Build 0)  -->
<svg version="1.1" id="我的_x2014__x2014_未选中_1_"
	 xmlns="http://www.w3.org/2000/svg" xmlns:xlink="http://www.w3.org/1999/xlink" x="0px" y="0px" viewBox="0 0 600 600"
	 style="enable-background:new 0 0 600 600;" xml:space="preserve">
<style type="text/css">
	.st0{fill-rule:evenodd;clip-rule:evenodd;fill:#C9C9C9;}
	.st1{fill:#C9C9C9;}
</style>
<g id="椭圆_2_拷贝_4">
	<g>
		<path class="st0" d="M300,50c-71.8,0-130,58.2-130,130s58.2,130,130,130s130-58.2,130-130S371.8,50,300,50z M300,262.4
			c-45.3,0-82-36.7-82-82s36.7-82,82-82c45.3,0,82,36.7,82,82S345.3,262.4,300,262.4z"/>
	</g>
</g>
<g id="椭圆_2">
	<g>
		<path class="st1" d="M300.1,369.4c42.3,0,82,16.5,111.9,46.4c23.6,23.6,38.8,53.3,44.2,85.6H144c5.4-32.3,20.6-62,44.2-85.6
			C218.1,385.9,257.8,369.4,300.1,369.4 M300.1,321.4c-113.9,0-206.3,92.3-206.3,206.3c0,7.3,0.4,14.6,1.1,21.7h410.2
			c0.7-7.1,1.1-14.4,1.1-21.7C506.4,413.7,414,321.4,300.1,321.4L300.1,321.4z"/>
	</g>
</g>
</svg>
